<?xml version="1.0" standalone="no"?>
<!DOCTYPE svg PUBLIC "-//W3C//DTD SVG 1.1//EN" "http://www.w3.org/Graphics/SVG/1.1/DTD/svg11.dtd" >
<svg xmlns="http://www.w3.org/2000/svg">
<metadata>Generated by IcoMoon</metadata>
<defs>
<font id="Luma-Icons" horiz-adv-x="1024">
<font-face units-per-em="1024" ascent="960" descent="-64" />
<missing-glyph horiz-adv-x="1024" />
<glyph unicode="&#x20;" d="" horiz-adv-x="512" />
<glyph unicode="&#xe600;" d="M794.002 773.047c-102.546 48.274-224.878 4.352-273.189-98.231-3.365-7.131-6.29-16.055-8.814-26.405-2.56 10.35-5.449 19.273-8.814 26.441-48.311 102.583-170.642 146.505-273.225 98.231-102.51-48.311-146.469-170.642-98.194-273.189 48.311-102.546 380.123-396.544 380.123-396.544s0.037 0.366 0.073 0.914c0.073-0.585 0.11-0.914 0.11-0.914s331.813 293.998 380.123 396.544c48.274 102.546 4.389 224.841-98.194 273.152z" />
<glyph unicode="&#xe601;" d="M725.065 850.103c-99.621-99.584-41.618-41.545-41.618-41.545l192.805-192.768c0 0-62.135-62.098 41.545 41.545s-93.221 292.389-192.731 192.768zM640.293 767.342l-455.973-455.973 0.658-0.585-108.142-293.047 299.666 101.376 0.622-0.622 1.573 1.609v0.037l454.4 454.4-192.805 192.805zM358.071 208.75l-157.623-66.56 74.094 150.089 76.69 76.727 83.529-83.566-76.69-76.69z" />
<glyph unicode="&#xe602;" d="M511.904 960l-511.904-896h1024l-512.096 896zM574.24 707.616v-130.72l-33.376-257.088h-54.176l-36.064 257.088-1.984 130.72h125.6zM448.192 128.224v128.224h128.48v-128.224h-128.48z" />
<glyph unicode="&#xe603;" d="M727.845 224.037c-59.611-57.527-137.326-87.003-216.027-87.077-70.29 0.073-140.398 23.515-198.693 71.863-74.057 61.659-112.091 149.943-112.201 239.323 0 14.885 1.097 29.659 3.182 44.361l-121.344-22.747c-0.329-7.205-0.585-14.373-0.585-21.614-0.073-122.99 52.919-245.797 155.099-330.569 80.018-66.67 177.774-99.365 274.505-99.365h0.256c112.421 0 224.329 44.434 307.493 129.829l79.689-79.543 0.622 249.49-263.607 0.695 91.611-94.647zM786.688 778.459c-80.091 66.67-177.847 99.328-274.542 99.328-111.616 0-222.793-43.666-305.847-127.89l-75.374 69.595-1.353-241.445 260.974-1.499-92.672 96.987c59.282 56.503 136.375 85.394 214.309 85.467 70.217-0.073 140.434-23.442 198.656-71.863 74.057-61.659 112.091-149.87 112.274-239.397 0-12.873-0.914-25.783-2.45-38.729l120.869 23.186c0.073 5.23 0.329 10.423 0.329 15.543-0.073 123.099-53.029 245.797-155.173 330.715z" />
<glyph unicode="&#xe604;" d="M191.584-64h640.8v640.16h-640.8v-640.16zM636.672 457.024c0 19.808 16.064 35.808 35.904 35.808 19.808 0 35.872-16 35.872-35.808v-377.472c0-19.776-16.064-35.84-35.872-35.84-19.84 0-35.904 16.064-35.904 35.84v377.472zM476.096 457.024c0 19.808 16.064 35.808 35.84 35.808s35.84-16 35.84-35.808v-377.472c0-19.776-16.064-35.84-35.84-35.84s-35.84 16.064-35.84 35.84v377.472zM315.2 457.024c0 19.808 16 35.808 35.84 35.808 19.776 0 35.84-16 35.84-35.808v-377.472c0-19.776-16.064-35.84-35.84-35.84-19.84 0-35.84 16.064-35.84 35.84v377.472zM846.432 833.056h-142.464v21.792c0 58.080-39.52 105.152-97.6 105.152h-189.44c-58.016 0-96.96-47.072-96.96-105.152v-21.792h-142.464c-27.392 0-49.536-22.176-49.536-49.504v-143.968h768v143.968c0 27.328-22.080 49.504-49.536 49.504zM639.872 833.056h-256.384v29.408c0.064 18.496 14.976 33.472 33.44 33.536h189.44c18.432-0.064 33.408-15.040 33.504-33.536v-29.408z" />
<glyph unicode="&#xe605;" d="M979.31 555.593c-2.377 7.461-9.435 12.617-17.298 12.617h-330.459l-102.254 314.149c-2.487 7.497-9.435 12.544-17.298 12.544-7.79 0-14.811-5.083-17.262-12.544l-102.875-314.149h-329.911c-7.79 0-14.811-5.157-17.262-12.581-2.377-7.424 0.219-15.726 6.546-20.37l267.008-194.414-102.875-315.941c-2.45-7.461 0.219-15.689 6.619-20.334 6.327-4.608 14.994-4.608 21.321 0l268.69 195.072 268.142-195.035c3.255-2.304 6.912-3.547 10.642-3.547 3.803 0 7.534 1.207 10.679 3.547 6.51 4.645 9.070 12.8 6.619 20.334l-102.875 315.941 267.557 194.414c6.327 4.645 8.997 12.837 6.546 20.297z" />
<glyph unicode="&#xe606;" d="M946.030 400.75v98.743l-14.007 4.535-105.765 34.487-28.233 68.206 54.309 114.761-69.815 69.815-13.166-6.619-99.109-50.395-68.206 28.233-42.789 119.515h-98.743l-4.571-13.97-34.523-105.765-68.096-28.197-114.798 54.272-69.851-69.851 6.619-13.129 50.359-99.182-28.16-68.059-119.515-42.825v-98.779l13.897-4.498 105.801-34.56 28.197-68.133-54.235-114.761 69.851-69.851 13.056 6.656 99.182 50.395 68.133-28.233 42.789-119.515h98.743l4.571 13.97 34.56 105.765 68.059 28.233 114.798-54.272 69.888 69.815-6.693 13.093-50.395 99.145 28.233 68.133 119.625 42.825zM512 309.723c-76.398 0-138.313 61.915-138.313 138.277 0 76.434 61.915 138.313 138.313 138.313 76.325 0 138.313-61.879 138.313-138.313 0-76.361-62.025-138.277-138.313-138.277z" />
<glyph unicode="&#xe607;" d="M76.142 680.448l435.858-464.859 435.858 464.859z" />
<glyph unicode="&#xe608;" d="M766.83 453.193l-425.143 437.175-74.569-69.961 356.571-366.555-366.555-376.905 72.96-71.314 411.319 422.912-0.402 0.402z" />
<glyph unicode="&#xe609;" d="M162.962 656.347h698.112c19.054 0 34.414 15.433 34.414 34.414 0 19.054-15.397 34.414-34.414 34.414h-698.112c-19.054 0-34.414-15.397-34.414-34.414-0.037-18.981 15.36-34.414 34.414-34.414zM861.038 482.414h-698.075c-19.054 0-34.414-15.397-34.414-34.414s15.397-34.414 34.414-34.414h698.112c19.054 0 34.414 15.397 34.414 34.414s-15.397 34.414-34.45 34.414zM861.038 239.653h-698.075c-19.054 0-34.414-15.397-34.414-34.414s15.397-34.414 34.414-34.414h698.112c19.054 0 34.414 15.397 34.414 34.414s-15.397 34.414-34.45 34.414z" />
<glyph unicode="&#xe60a;" d="M512.288 960c-178.24 0-322.688-144.48-322.688-322.752 0-178.208 322.688-701.248 322.688-701.248s322.752 523.040 322.752 701.248c0 178.272-144.384 322.752-322.752 322.752zM512.288 539.232c-54.112 0-98.048 43.904-98.048 98.016 0 54.144 43.968 98.048 98.048 98.048 54.208 0 98.176-43.904 98.176-98.048 0-54.112-43.968-98.016-98.176-98.016z" />
<glyph unicode="&#xe60b;" d="M73.545 504.357h383.561v381.842h-383.561v-381.842zM566.784 886.199v-163.913h383.671v163.913h-383.671zM73.545 11.081h383.561v381.842h-383.561v-381.842zM566.784 503.077h383.671v163.877h-383.671v-163.877zM566.784 229.047h383.671v163.877h-383.671v-163.877zM566.784 9.801h383.671v163.877h-383.671v-163.877z" />
<glyph unicode="&#xe60c;" d="M665.527 238.007c-18.432 0-90.99-112.055-130.487-112.055-10.569 0-15.726 9.289-15.726 18.432 0 21.138 14.482 54.089 22.309 73.874l94.793 256.768c47.543 127.781-13.093 162.048-69.742 162.048-76.434 0-144.896-38.181-197.559-88.247-17.152-17.152-75.045-72.411-75.045-96.183 0-7.863 7.863-17.152 17.152-17.152 23.625 0 86.894 114.615 135.607 114.615 10.569 0 22.382-11.849 13.166-35.511l-92.16-231.936c-9.289-22.309-54.089-130.341-54.089-193.573 0-50.030 32.951-72.375 80.384-72.375 133.047 0 287.086 163.291 287.086 201.509-0.037 11.849-9.179 19.785-15.689 19.785zM639.086 879.323c-57.893 0-108.032-47.36-108.032-105.326 0-54.016 35.584-89.6 89.673-89.6 59.099 0 109.239 44.8 109.239 105.399 0 54.016-38.144 89.527-90.88 89.527z" />
<glyph unicode="&#xe60d;" d="M72.997 666.697h220.306v220.306h-220.306v-220.306zM401.847 666.697h220.306v220.306h-220.306v-220.306zM730.661 887.003v-220.306h220.343v220.306h-220.343zM72.997 337.847h220.306v220.27h-220.306v-220.27zM401.847 337.847h220.306v220.27h-220.306v-220.27zM730.661 337.847h220.343v220.27h-220.343v-220.27zM72.997 8.997h220.306v220.306h-220.306v-220.306zM401.847 8.997h220.306v220.306h-220.306v-220.306zM730.661 8.997h220.343v220.306h-220.343v-220.306z" />
<glyph unicode="&#xe60e;" d="M510.592 900.928c-249.376 0-451.52-202.144-451.52-451.52 0-249.344 202.144-451.52 451.52-451.52 249.344 0 451.52 202.176 451.52 451.52 0 249.376-202.144 451.52-451.52 451.52zM463.872 189.152l-251.872 256.064 64.416 51.872 145.728-114.176c59.52 70.848 192 212.064 374.624 323.968l15.392-35.584c-167.616-154.176-304.96-371.2-348.288-482.144z" />
<glyph unicode="&#xe60f;" d="M67.584 477.696h888.869v-59.136h-888.869v59.136z" />
<glyph unicode="&#xe610;" d="M956.526 852.297c-285.111-174.775-491.959-395.264-584.96-505.893l-227.584 178.322-100.535-81.079 393.326-399.945c67.694 173.349 282.112 512.219 543.744 752.969l-23.991 55.625z" />
<glyph unicode="&#xe611;" d="M443.392 175.323c-51.054 0-92.379-41.399-92.379-92.416s41.326-92.343 92.379-92.343c51.017 0 92.379 41.326 92.379 92.343s-41.362 92.416-92.379 92.416zM762.441 175.323c-51.127 0-92.453-41.399-92.453-92.416s41.326-92.343 92.453-92.343c50.944 0 92.306 41.326 92.306 92.343s-41.362 92.416-92.306 92.416zM906.825 692.736c-237.093 0-619.557 0-619.557 0s-37.595 101.595-72.448 164.389c-34.853 62.72-83.931 46.446-83.931 46.446-38.949 0-57.015-23.296-57.015-62.318 0-38.949 23.881-70.546 62.83-70.546l24.101-21.541 176.75-479.305 516.827-0.402c0 0 94.501 379.538 89.637 364.544 17.408 53.614-4.681 58.734-37.193 58.734zM338.651 512.622c-27.136 0-49.152 22.016-49.152 49.152s22.016 49.152 49.152 49.152 49.152-22.053 49.152-49.189-22.016-49.115-49.152-49.115zM443.758 348.489c-27.136 0-49.152 22.053-49.152 49.189 0 27.099 22.016 49.152 49.152 49.152 27.136 0 49.152-22.053 49.152-49.152 0-27.136-22.053-49.189-49.152-49.189zM497.774 512.622c-27.136 0-49.152 22.016-49.152 49.152s22.016 49.189 49.152 49.189c27.136 0 49.152-22.053 49.152-49.189s-22.016-49.152-49.152-49.152zM602.807 348.489c-27.136 0-49.115 22.053-49.115 49.189 0 27.099 21.979 49.152 49.115 49.152s49.262-22.053 49.262-49.152c0-27.136-22.126-49.189-49.262-49.189zM656.859 512.622c-27.136 0-49.152 22.016-49.152 49.152s22.016 49.189 49.152 49.189c27.173 0 49.115-22.053 49.115-49.189s-21.906-49.152-49.115-49.152zM761.893 348.489c-27.063 0-49.115 22.053-49.115 49.189 0 27.099 22.053 49.152 49.115 49.152 27.136 0 49.225-22.053 49.225-49.152 0-27.136-22.053-49.189-49.225-49.189zM815.982 512.622c-27.136 0-49.152 22.016-49.152 49.152s22.016 49.189 49.152 49.189c27.173 0 49.115-22.053 49.115-49.189s-21.943-49.152-49.115-49.152z" />
<glyph unicode="&#xe612;" d="M788.517 775.314v-0.695c15.616-13.824 25.454-33.975 25.454-56.466 0-41.655-33.719-75.447-75.447-75.447s-75.483 33.792-75.483 75.447c0 22.491 9.911 42.679 25.563 56.466v0.695h-352.585v-0.695c15.616-13.824 25.527-33.975 25.527-56.466 0-41.655-33.792-75.447-75.447-75.447-41.728 0-75.447 33.792-75.447 75.447 0 22.491 9.874 42.679 25.49 56.466v0.695h-168.155v-763.941h888.027v763.941h-167.497zM894.025 77.531h-759.881v506.295h759.881v-506.295zM286.098 674.231c20.699 0 37.559 16.786 37.559 37.559v135.278c0 20.773-16.859 37.559-37.559 37.559-20.773 0-37.559-16.786-37.559-37.559v-135.278c-0.037-20.773 16.786-37.559 37.559-37.559zM738.56 674.231c20.699 0 37.559 16.786 37.559 37.559v135.278c0 20.773-16.859 37.559-37.559 37.559s-37.632-16.786-37.632-37.559v-135.278c0-20.773 16.896-37.559 37.632-37.559zM698.258 520.96h-95.781v-95.634h95.781v95.634zM698.258 377.051h-95.781v-95.671h95.781v95.671zM698.258 237.093h-95.781v-95.707h95.781v95.707zM833.024 377.051h-95.781v-95.671h95.781v95.671zM833.024 520.96h-95.781v-95.634h95.781v95.634zM428.617 237.093h-95.707v-95.707h95.707v95.707zM293.705 377.051h-95.634v-95.671h95.671v95.671zM563.346 520.96h-95.671v-95.634h95.671v95.634zM293.705 237.093h-95.634v-95.707h95.671v95.707zM428.617 377.051h-95.707v-95.671h95.707v95.671zM428.617 520.96h-95.707v-95.634h95.707v95.634zM563.346 377.051h-95.671v-95.671h95.671v95.671zM563.346 237.093h-95.671v-95.707h95.671v95.707z" />
<glyph unicode="&#xe613;" d="M512 889.454l-401.627-486.583h262.107v-396.288h279.15v396.288h262.034z" />
<glyph unicode="&#xe614;" d="M651.557 493.166v396.288h-279.186v-396.288h-261.998l401.664-486.583 401.627 486.583z" />
<glyph unicode="&#xe615;" d="M836.462 183.918c0 0-109.641 112.677-153.381 156.233-19.054 19.017-32.073 31.927-32.073 31.927 14.848 21.211 26.405 44.361 34.633 69.339s12.361 51.237 12.361 78.848c0 35.621-6.802 69.083-20.334 100.462-13.568 31.305-32 58.697-55.406 82.030-23.369 23.442-50.725 41.874-82.066 55.406-31.305 13.605-64.768 20.37-100.389 20.37-35.584 0-69.047-6.802-100.425-20.37-31.305-13.531-58.551-31.963-81.664-55.406-23.077-23.296-41.435-50.688-54.967-81.993-13.568-31.378-20.334-64.841-20.334-100.462s6.802-69.083 20.334-100.389c13.531-31.305 31.89-58.661 54.967-82.103 23.113-23.333 50.322-41.801 81.664-55.369 31.378-13.568 64.841-20.297 100.425-20.297 27.648 0 53.943 4.023 78.885 12.288s48.091 19.858 69.303 34.706c0 0 11.922-11.959 29.696-29.806 48.421-48.603 155.026-159.159 155.026-159.159 16.018-6.985 41.728 0.439 54.455 11.337s19.858 33.682 9.289 52.407zM612.718 447.013c-9.838-22.747-23.223-42.569-40.155-59.429-16.933-16.933-36.718-30.354-59.429-40.192-22.638-9.874-46.848-14.775-72.521-14.775-26.258 0-50.688 4.937-73.362 14.775-22.674 9.838-42.496 23.259-59.429 40.192-16.896 16.859-30.354 36.681-40.155 59.429-9.838 22.601-14.738 47.104-14.738 73.289 0 25.673 4.901 50.030 14.738 72.997 9.838 22.93 23.259 42.898 40.155 59.794 16.933 16.969 36.754 30.354 59.429 40.155 22.674 9.911 47.104 14.738 73.362 14.738 25.673 0 49.883-4.864 72.521-14.738 22.674-9.801 42.496-23.186 59.429-40.155 16.933-16.933 30.318-36.901 40.155-59.831 9.874-22.967 14.738-47.323 14.738-72.997 0-26.149-4.901-50.651-14.738-73.253z" />
<glyph unicode="&#xe616;" d="M966.51 830.354l-72.046 71.936-382.501-382.537-382.501 382.537-71.973-71.936 382.537-382.537-382.245-382.281 71.936-71.863 382.281 382.208 382.245-382.208 71.863 71.863-382.208 382.245z" />
<glyph unicode="&#xe617;" d="M400.421 453.778l356.425 366.629-74.496 69.961-425.216-437.175 436.919-447.561 72.777 71.314z" />
<glyph unicode="&#xe618;" d="M512 680.448l-435.858-464.859h871.717z" />
<glyph unicode="&#xe619;" d="M208.896 887.991v-879.982l606.171 439.991z" />
<glyph unicode="&#xe61a;" d="M208.896 448l606.171-439.991v879.982z" />
<glyph unicode="&#xe61b;" d="M55.15 20.151h122.77v855.698h-122.77v-855.698zM968.887 872.887h-733.367v-486.693h733.367l-246.601 240.091 246.601 246.601z" />
<glyph unicode="&#xe61c;" d="M956.453 477.696h-414.025v414.72h-59.099v-414.72h-415.744v-59.136h415.744v-414.976h59.099v414.976h414.025z" />
<glyph unicode="&#xe61d;" d="M512 494.665l381.696 264.265c-4.535 0.878-9.216 1.426-13.97 1.426h-735.415c-4.827 0-9.509-0.549-14.043-1.426l381.733-264.265zM513.609 391.241l-1.609 2.341-1.609-2.304-438.821 303.726c-0.293-2.706-0.805-5.413-0.805-8.229v-477.623c0-40.594 32.914-73.509 73.545-73.509h735.378c40.631 0 73.545 32.878 73.545 73.509v477.623c0 2.816-0.512 5.486-0.841 8.229l-438.784-303.762z" />
<glyph unicode="&#xe61e;" d="M292.059 100.681v218.953h-218.917v-218.953h218.917zM620.837 795.319h-217.71v-694.638h217.71v694.638zM950.857 539.392h-220.050v-438.711h220.050v438.711z" />
<glyph unicode="&#xe61f;" d="M510.592 900.928c-249.376 0-451.52-202.144-451.52-451.52 0-249.344 202.144-451.52 451.52-451.52 249.344 0 451.52 202.176 451.52 451.52 0 249.376-202.144 451.52-451.52 451.52zM744.32 289.664l-74.208-74.208-158.176 158.112-158.112-158.080-74.24 74.272 158.048 158.048-158.272 158.24 74.272 74.272 158.24-158.272 158.368 158.368 74.304-74.304-158.4-158.336 158.176-158.112z" />
<glyph unicode="&#xe620;" d="M525.495 837.376c-227.328 4.498-414.427-135.607-417.938-312.869-1.17-61.659 19.968-119.625 57.6-169.289l-9.838 9.911c64.768-83.237-62.208-306.615-62.208-306.615l284.562 140.69c45.019-14.19 88.32-23.845 139.447-24.905 227.328-4.462 410.222 156.709 413.696 334.007 3.511 177.262-177.92 324.608-405.321 329.070z" />
<glyph unicode="&#xe621;" d="M518.327 570.843l403.675-392.448 77.093 82.139-481.426 468.041-492.727-480.951 78.519-80.201z" />
<glyph unicode="&#xe622;" d="M505.637 325.157l-403.639 392.448-77.056-82.139 481.353-468.041 492.8 480.951-78.665 80.201z" />
<glyph unicode="&#xe627;" d="M511.963 881.189c-239.214 0-433.152-193.938-433.152-433.189s193.938-433.189 433.152-433.189c239.25 0 433.189 193.938 433.189 433.189s-193.902 433.189-433.189 433.189zM511.963 839.826c216.101 0 391.826-175.762 391.826-391.826 0-90.368-31.013-173.422-82.651-239.799-6.217 2.267-12.434 4.389-18.395 6.912-39.497 16.53-83.419 35.913-122.843 52.187-11.264 3.072-22.528 6.144-33.792 9.216-13.385 9.179-26.661 39.973-33.829 55.333-7.095 1.024-14.299 2.011-21.504 2.962 1.061 23.735 15.762 25.088 21.504 43.081 5.083 15.909 0.585 36.681 8.558 51.456 5.559 10.24 18.249 10.24 24.466 19.090 5.705 7.899 9.545 21.833 11.337 31.598 3.218 17.81 6.034 42.24-2.414 59.977-4.864 10.13-7.936 11.154-9.289 23.479-1.646 15.031 4.425 63.781 4.681 74.35 0.585 27.355-0.11 29.586-6.693 56.247 0 0-8.009 24.174-20.59 31.451l-25.161 4.315-15.543 14.373c-62.61 38.546-129.755 11.52-165.669-2.999-51.822-16.859-84.59-67.584-61.733-175.909 3.913-18.578-10.13-26.843-9.216-36.937 2.085-22.089 2.414-75.227 23.296-88.247 1.938-1.207 16.75-4.937 16.677-3.877 2.011-21.504 4.096-43.045 6.107-64.475 5.23-14.299 17.737-15.909 21.358-36.096l-15.982-3.84c-7.205-15.36-20.37-46.153-33.792-55.333-11.301-3.035-22.565-6.107-33.829-9.179-39.461-16.238-83.31-35.657-122.843-52.187-2.158-0.878-4.425-1.573-6.583-2.414-49.518 65.573-79.25 146.907-79.25 235.264 0 216.064 175.762 391.826 391.79 391.826z" />
</font>
</defs>
</svg>
